# xmcd
#
# Track frame offsets: 
#        150
#        17109
#        41011
#        57260
#        81704
#        105268
#        128972
#        147562
#        168556
#        187409
#        212297
#        219998
#
# Disc length: 3107 seconds
#
# Revision: 0
# Processed by: cddbd v1.5.1PL0 Copyright (c) Steve Scherf et al.
# Submitted via: ExactAudioCopy v0.95a5
#
DISCID=b40c210c
DTITLE=Roy Hudson Band - Nature of the Boogie Beast
DYEAR=2003
DGENRE=Blues
TTITLE0=Messin' Round
TTITLE1=Testify
TTITLE2=Cadillac Man
TTITLE3=Send Me Some Relief (Ice Storm '98)
TTITLE4=Won't You Let Me Know?
TTITLE5=You Got No Time
TTITLE6=Love Groove
TTITLE7=There's a Party At Pete and Vickie's
TTITLE8=Gemini
TTITLE9=Goin' Back To Livermore
TTITLE10=Goodbye Blues
TTITLE11=Lonely Heart
EXTD=
EXTT0=
EXTT1=
EXTT2=
EXTT3=
EXTT4=
EXTT5=
EXTT6=
EXTT7=
EXTT8=
EXTT9=
EXTT10=
EXTT11=
PLAYORDER=
